<svg width="960" height="1704" viewBox="0 0 960 1704" version="1.1" xmlns="http://www.w3.org/2000/svg" xmlns:xlink="http://www.w3.org/1999/xlink">
<title>Layout_</title>
<desc>Created using Figma</desc>
<g id="Canvas" transform="matrix(3 0 0 3 1578 19251)">
<clipPath id="clip-0" clip-rule="evenodd">
<path d="M -526 -6417L -206 -6417L -206 -5849L -526 -5849L -526 -6417Z" fill="#FFFFFF"/>
</clipPath>
<g id="Layout_" clip-path="url(#clip-0)">
<path d="M -526 -6417L -206 -6417L -206 -5849L -526 -5849L -526 -6417Z" fill="#3C3C3C"/>
<g id="Rectangle">
<use xlink:href="#path0_fill" transform="translate(-447 -6406)" fill="#565656" fill-opacity="0.39"/>
<mask id="mask0_outline_ins">
<use xlink:href="#path0_fill" fill="white" transform="translate(-447 -6406)"/>
</mask>
<g mask="url(#mask0_outline_ins)">
<use xlink:href="#path1_stroke_2x" transform="translate(-447 -6406)" fill="#262626" fill-opacity="0.6"/>
</g>
</g>
<g id="Rectangle">
<use xlink:href="#path0_fill" transform="translate(-454 -6398)" fill="#565656" fill-opacity="0.39"/>
<mask id="mask1_outline_ins">
<use xlink:href="#path0_fill" fill="white" transform="translate(-454 -6398)"/>
</mask>
<g mask="url(#mask1_outline_ins)">
<use xlink:href="#path1_stroke_2x" transform="translate(-454 -6398)" fill="#262626" fill-opacity="0.6"/>
</g>
</g>
<g id="Rectangle">
<use xlink:href="#path0_fill" transform="translate(-461 -6390)" fill="#565656" fill-opacity="0.39"/>
<mask id="mask2_outline_ins">
<use xlink:href="#path0_fill" fill="white" transform="translate(-461 -6390)"/>
</mask>
<g mask="url(#mask2_outline_ins)">
<use xlink:href="#path1_stroke_2x" transform="translate(-461 -6390)" fill="#262626" fill-opacity="0.6"/>
</g>
</g>
<g id="Rectangle">
<use xlink:href="#path0_fill" transform="translate(-469 -6382)" fill="#565656" fill-opacity="0.39"/>
<mask id="mask3_outline_ins">
<use xlink:href="#path0_fill" fill="white" transform="translate(-469 -6382)"/>
</mask>
<g mask="url(#mask3_outline_ins)">
<use xlink:href="#path1_stroke_2x" transform="translate(-469 -6382)" fill="#262626" fill-opacity="0.6"/>
</g>
</g>
<g id="Rectangle">
<use xlink:href="#path0_fill" transform="translate(-477 -6373)" fill="#565656" fill-opacity="0.39"/>
<mask id="mask4_outline_ins">
<use xlink:href="#path0_fill" fill="white" transform="translate(-477 -6373)"/>
</mask>
<g mask="url(#mask4_outline_ins)">
<use xlink:href="#path1_stroke_2x" transform="translate(-477 -6373)" fill="#262626" fill-opacity="0.6"/>
</g>
</g>
<g id="Rectangle">
<use xlink:href="#path0_fill" transform="translate(-485 -6365)" fill="#565656" fill-opacity="0.39"/>
<mask id="mask5_outline_ins">
<use xlink:href="#path0_fill" fill="white" transform="translate(-485 -6365)"/>
</mask>
<g mask="url(#mask5_outline_ins)">
<use xlink:href="#path1_stroke_2x" transform="translate(-485 -6365)" fill="#262626" fill-opacity="0.6"/>
</g>
</g>
<g id="Rectangle">
<use xlink:href="#path0_fill" transform="translate(-492 -6357)" fill="#4B4B4B" fill-opacity="0.56"/>
<mask id="mask6_outline_ins">
<use xlink:href="#path0_fill" fill="white" transform="translate(-492 -6357)"/>
</mask>
<g mask="url(#mask6_outline_ins)">
<use xlink:href="#path1_stroke_2x" transform="translate(-492 -6357)" fill="#4B4B4B" fill-opacity="0.66"/>
</g>
</g>
<g id="BBC News">
<use xlink:href="#path2_fill" transform="translate(-491 -6357)" fill="#FFFFFF"/>
</g>
<g id="Rectangle">
<use xlink:href="#path0_fill" transform="translate(-446 -6141)" fill="#565656" fill-opacity="0.39"/>
<mask id="mask7_outline_ins">
<use xlink:href="#path0_fill" fill="white" transform="translate(-446 -6141)"/>
</mask>
<g mask="url(#mask7_outline_ins)">
<use xlink:href="#path1_stroke_2x" transform="translate(-446 -6141)" fill="#262626" fill-opacity="0.6"/>
</g>
</g>
<g id="Rectangle">
<use xlink:href="#path0_fill" transform="translate(-453 -6133)" fill="#565656" fill-opacity="0.39"/>
<mask id="mask8_outline_ins">
<use xlink:href="#path0_fill" fill="white" transform="translate(-453 -6133)"/>
</mask>
<g mask="url(#mask8_outline_ins)">
<use xlink:href="#path1_stroke_2x" transform="translate(-453 -6133)" fill="#262626" fill-opacity="0.6"/>
</g>
</g>
<g id="Rectangle">
<use xlink:href="#path0_fill" transform="translate(-460 -6125)" fill="#565656" fill-opacity="0.39"/>
<mask id="mask9_outline_ins">
<use xlink:href="#path0_fill" fill="white" transform="translate(-460 -6125)"/>
</mask>
<g mask="url(#mask9_outline_ins)">
<use xlink:href="#path1_stroke_2x" transform="translate(-460 -6125)" fill="#262626" fill-opacity="0.6"/>
</g>
</g>
<g id="Rectangle">
<use xlink:href="#path0_fill" transform="translate(-468 -6117)" fill="#565656" fill-opacity="0.39"/>
<mask id="mask10_outline_ins">
<use xlink:href="#path0_fill" fill="white" transform="translate(-468 -6117)"/>
</mask>
<g mask="url(#mask10_outline_ins)">
<use xlink:href="#path1_stroke_2x" transform="translate(-468 -6117)" fill="#262626" fill-opacity="0.6"/>
</g>
</g>
<g id="Rectangle">
<use xlink:href="#path0_fill" transform="translate(-476 -6108)" fill="#565656" fill-opacity="0.39"/>
<mask id="mask11_outline_ins">
<use xlink:href="#path0_fill" fill="white" transform="translate(-476 -6108)"/>
</mask>
<g mask="url(#mask11_outline_ins)">
<use xlink:href="#path1_stroke_2x" transform="translate(-476 -6108)" fill="#262626" fill-opacity="0.6"/>
</g>
</g>
<g id="Rectangle">
<use xlink:href="#path0_fill" transform="translate(-484 -6100)" fill="#565656" fill-opacity="0.39"/>
<mask id="mask12_outline_ins">
<use xlink:href="#path0_fill" fill="white" transform="translate(-484 -6100)"/>
</mask>
<g mask="url(#mask12_outline_ins)">
<use xlink:href="#path1_stroke_2x" transform="translate(-484 -6100)" fill="#262626" fill-opacity="0.6"/>
</g>
</g>
<g id="Rectangle">
<use xlink:href="#path0_fill" transform="translate(-491 -6092)" fill="#4B4B4B" fill-opacity="0.56"/>
<mask id="mask13_outline_ins">
<use xlink:href="#path0_fill" fill="white" transform="translate(-491 -6092)"/>
</mask>
<g mask="url(#mask13_outline_ins)">
<use xlink:href="#path1_stroke_2x" transform="translate(-491 -6092)" fill="#4B4B4B" fill-opacity="0.66"/>
</g>
</g>
<g id="Techrunch">
<use xlink:href="#path3_fill" transform="translate(-490 -6092)" fill="#FFFFFF"/>
</g>
</g>
</g>
<defs>
<path id="path0_fill" d="M 0 33C 0 14.7746 14.7746 0 33 0L 167 0C 185.225 0 200 14.7746 200 33L 200 167C 200 185.225 185.225 200 167 200L 33 200C 14.7746 200 0 185.225 0 167L 0 33Z"/>
<path id="path1_stroke_2x" d="M 33 0.5L 167 0.5L 167 -0.5L 33 -0.5L 33 0.5ZM 199.5 33L 199.5 167L 200.5 167L 200.5 33L 199.5 33ZM 167 199.5L 33 199.5L 33 200.5L 167 200.5L 167 199.5ZM 0.5 167L 0.5 33L -0.5 33L -0.5 167L 0.5 167ZM 33 -0.5C 14.4985 -0.5 -0.5 14.4985 -0.5 33L 0.5 33C 0.5 15.0507 15.0507 0.5 33 0.5L 33 -0.5ZM 167 0.5C 184.949 0.5 199.5 15.0507 199.5 33L 200.5 33C 200.5 14.4985 185.502 -0.5 167 -0.5L 167 0.5ZM 199.5 167C 199.5 184.949 184.949 199.5 167 199.5L 167 200.5C 185.502 200.5 200.5 185.502 200.5 167L 199.5 167ZM 33 199.5C 15.0507 199.5 0.5 184.949 0.5 167L -0.5 167C -0.5 185.502 14.4985 200.5 33 200.5L 33 199.5Z"/>
<path id="path2_fill" d="M 60.7031 107L 60.7031 92.7812L 64.7559 92.7812C 66.0514 92.7812 67.0247 93.097 67.6758 93.7285C 68.3333 94.36 68.6621 95.3073 68.6621 96.5703C 68.6621 97.2344 68.4961 97.8203 68.1641 98.3281C 67.832 98.8359 67.3828 99.2298 66.8164 99.5098C 67.4674 99.7051 67.9818 100.105 68.3594 100.711C 68.7435 101.316 68.9355 102.046 68.9355 102.898C 68.9355 104.174 68.584 105.177 67.8809 105.906C 67.1842 106.635 66.1882 107 64.8926 107L 60.7031 107ZM 62.4902 100.35L 62.4902 105.467L 64.9316 105.467C 65.6087 105.467 66.1458 105.245 66.543 104.803C 66.9401 104.354 67.1387 103.725 67.1387 102.918C 67.1387 101.206 66.416 100.35 64.9707 100.35L 62.4902 100.35ZM 62.4902 98.8457L 64.7852 98.8457C 65.4036 98.8457 65.9017 98.6374 66.2793 98.2207C 66.6634 97.804 66.8555 97.2507 66.8555 96.5605C 66.8555 95.7793 66.6829 95.2129 66.3379 94.8613C 65.9928 94.5033 65.4655 94.3242 64.7559 94.3242L 62.4902 94.3242L 62.4902 98.8457ZM 71.6211 107L 71.6211 92.7812L 75.6738 92.7812C 76.9694 92.7812 77.9427 93.097 78.5938 93.7285C 79.2513 94.36 79.5801 95.3073 79.5801 96.5703C 79.5801 97.2344 79.4141 97.8203 79.082 98.3281C 78.75 98.8359 78.3008 99.2298 77.7344 99.5098C 78.3854 99.7051 78.8997 100.105 79.2773 100.711C 79.6615 101.316 79.8535 102.046 79.8535 102.898C 79.8535 104.174 79.502 105.177 78.7988 105.906C 78.1022 106.635 77.1061 107 75.8105 107L 71.6211 107ZM 73.4082 100.35L 73.4082 105.467L 75.8496 105.467C 76.5267 105.467 77.0638 105.245 77.4609 104.803C 77.8581 104.354 78.0566 103.725 78.0566 102.918C 78.0566 101.206 77.334 100.35 75.8887 100.35L 73.4082 100.35ZM 73.4082 98.8457L 75.7031 98.8457C 76.3216 98.8457 76.8197 98.6374 77.1973 98.2207C 77.5814 97.804 77.7734 97.2507 77.7734 96.5605C 77.7734 95.7793 77.6009 95.2129 77.2559 94.8613C 76.9108 94.5033 76.3835 94.3242 75.6738 94.3242L 73.4082 94.3242L 73.4082 98.8457ZM 91.4551 102.488C 91.377 104.012 90.9473 105.177 90.166 105.984C 89.3913 106.792 88.2943 107.195 86.875 107.195C 85.4492 107.195 84.3164 106.655 83.4766 105.574C 82.6367 104.487 82.2168 103.016 82.2168 101.16L 82.2168 98.582C 82.2168 96.7331 82.6465 95.2715 83.5059 94.1973C 84.3717 93.123 85.5501 92.5859 87.041 92.5859C 88.4147 92.5859 89.4759 92.9993 90.2246 93.8262C 90.9798 94.6465 91.39 95.8216 91.4551 97.3516L 89.6484 97.3516C 89.5703 96.1927 89.3262 95.3659 88.916 94.8711C 88.5059 94.3763 87.8809 94.1289 87.041 94.1289C 86.071 94.1289 85.3255 94.5098 84.8047 95.2715C 84.2839 96.0267 84.0234 97.1367 84.0234 98.6016L 84.0234 101.209C 84.0234 102.648 84.2643 103.751 84.7461 104.52C 85.2344 105.288 85.944 105.672 86.875 105.672C 87.806 105.672 88.4766 105.441 88.8867 104.979C 89.2969 104.516 89.5508 103.686 89.6484 102.488L 91.4551 102.488ZM 107.764 107L 105.967 107L 100.273 96.043L 100.273 107L 98.4766 107L 98.4766 92.7812L 100.273 92.7812L 105.986 103.787L 105.986 92.7812L 107.764 92.7812L 107.764 107ZM 114.395 107.195C 113.079 107.195 112.07 106.805 111.367 106.023C 110.664 105.236 110.306 104.083 110.293 102.566L 110.293 101.287C 110.293 99.7116 110.635 98.4779 111.318 97.5859C 112.008 96.6875 112.969 96.2383 114.199 96.2383C 115.436 96.2383 116.361 96.6322 116.973 97.4199C 117.585 98.2077 117.897 99.4349 117.91 101.102L 117.91 102.234L 112.012 102.234L 112.012 102.479C 112.012 103.611 112.223 104.435 112.646 104.949C 113.076 105.464 113.691 105.721 114.492 105.721C 115 105.721 115.446 105.626 115.83 105.438C 116.221 105.242 116.585 104.936 116.924 104.52L 117.822 105.613C 117.074 106.668 115.931 107.195 114.395 107.195ZM 114.199 97.7227C 113.483 97.7227 112.952 97.9701 112.607 98.4648C 112.262 98.9531 112.067 99.7148 112.021 100.75L 116.182 100.75L 116.182 100.516C 116.136 99.513 115.954 98.7969 115.635 98.3672C 115.322 97.9375 114.844 97.7227 114.199 97.7227ZM 127.871 103.963L 129.473 96.4336L 131.182 96.4336L 128.594 107L 127.217 107L 125.156 99.4414L 123.145 107L 121.758 107L 119.189 96.4336L 120.889 96.4336L 122.529 103.777L 124.492 96.4336L 125.859 96.4336L 127.871 103.963ZM 138.135 104.295C 138.135 103.924 137.995 103.605 137.715 103.338C 137.435 103.071 136.895 102.758 136.094 102.4C 135.163 102.016 134.505 101.688 134.121 101.414C 133.743 101.141 133.46 100.831 133.271 100.486C 133.083 100.135 132.988 99.7181 132.988 99.2363C 132.988 98.377 133.301 97.6641 133.926 97.0977C 134.557 96.5247 135.361 96.2383 136.338 96.2383C 137.367 96.2383 138.193 96.5378 138.818 97.1367C 139.443 97.7357 139.756 98.5039 139.756 99.4414L 138.037 99.4414C 138.037 98.9661 137.878 98.5625 137.559 98.2305C 137.24 97.8919 136.833 97.7227 136.338 97.7227C 135.83 97.7227 135.43 97.8561 135.137 98.123C 134.85 98.3835 134.707 98.735 134.707 99.1777C 134.707 99.5293 134.811 99.8125 135.02 100.027C 135.234 100.242 135.745 100.525 136.553 100.877C 137.835 101.378 138.708 101.87 139.17 102.352C 139.632 102.827 139.863 103.432 139.863 104.168C 139.863 105.086 139.548 105.822 138.916 106.375C 138.285 106.922 137.438 107.195 136.377 107.195C 135.277 107.195 134.385 106.88 133.701 106.248C 133.018 105.617 132.676 104.816 132.676 103.846L 134.414 103.846C 134.434 104.432 134.613 104.891 134.951 105.223C 135.29 105.555 135.765 105.721 136.377 105.721C 136.95 105.721 137.386 105.594 137.686 105.34C 137.985 105.079 138.135 104.731 138.135 104.295Z"/>
<path id="path3_fill" d="M 68.8086 94.3242L 65.0684 94.3242L 65.0684 107L 63.2812 107L 63.2812 94.3242L 59.5508 94.3242L 59.5508 92.7812L 68.8086 92.7812L 68.8086 94.3242ZM 73.4668 107.195C 72.1517 107.195 71.1426 106.805 70.4395 106.023C 69.7363 105.236 69.3783 104.083 69.3652 102.566L 69.3652 101.287C 69.3652 99.7116 69.707 98.4779 70.3906 97.5859C 71.0807 96.6875 72.041 96.2383 73.2715 96.2383C 74.5085 96.2383 75.4329 96.6322 76.0449 97.4199C 76.6569 98.2077 76.9694 99.4349 76.9824 101.102L 76.9824 102.234L 71.084 102.234L 71.084 102.479C 71.084 103.611 71.2956 104.435 71.7188 104.949C 72.1484 105.464 72.7637 105.721 73.5645 105.721C 74.0723 105.721 74.5182 105.626 74.9023 105.438C 75.293 105.242 75.6576 104.936 75.9961 104.52L 76.8945 105.613C 76.1458 106.668 75.0033 107.195 73.4668 107.195ZM 73.2715 97.7227C 72.5553 97.7227 72.0247 97.9701 71.6797 98.4648C 71.3346 98.9531 71.1393 99.7148 71.0938 100.75L 75.2539 100.75L 75.2539 100.516C 75.2083 99.513 75.026 98.7969 74.707 98.3672C 74.3945 97.9375 73.916 97.7227 73.2715 97.7227ZM 82.7344 105.721C 83.3073 105.721 83.7663 105.545 84.1113 105.193C 84.4564 104.835 84.6452 104.327 84.6777 103.67L 86.3086 103.67C 86.2695 104.686 85.9082 105.529 85.2246 106.199C 84.5475 106.863 83.7174 107.195 82.7344 107.195C 81.4258 107.195 80.4264 106.785 79.7363 105.965C 79.0527 105.138 78.7109 103.911 78.7109 102.283L 78.7109 101.121C 78.7109 99.526 79.0527 98.3151 79.7363 97.4883C 80.4199 96.6549 81.416 96.2383 82.7246 96.2383C 83.8053 96.2383 84.6615 96.5801 85.293 97.2637C 85.931 97.9473 86.2695 98.8815 86.3086 100.066L 84.6777 100.066C 84.6387 99.2852 84.4499 98.6992 84.1113 98.3086C 83.7793 97.918 83.3171 97.7227 82.7246 97.7227C 81.9564 97.7227 81.3867 97.9766 81.0156 98.4844C 80.6445 98.9857 80.4525 99.8125 80.4395 100.965L 80.4395 102.312C 80.4395 103.556 80.6217 104.435 80.9863 104.949C 81.3574 105.464 81.9401 105.721 82.7344 105.721ZM 90.0293 97.5176C 90.6868 96.6647 91.5267 96.2383 92.5488 96.2383C 94.4173 96.2383 95.3646 97.485 95.3906 99.9785L 95.3906 107L 93.6719 107L 93.6719 100.057C 93.6719 99.2298 93.5319 98.6439 93.252 98.2988C 92.9785 97.9473 92.5651 97.7715 92.0117 97.7715C 91.582 97.7715 91.1947 97.9147 90.8496 98.2012C 90.5111 98.4876 90.2376 98.862 90.0293 99.3242L 90.0293 107L 88.3008 107L 88.3008 92L 90.0293 92L 90.0293 97.5176ZM 102.334 98.0547C 102.093 98.0091 101.833 97.9863 101.553 97.9863C 100.667 97.9863 100.049 98.4714 99.6973 99.4414L 99.6973 107L 97.9688 107L 97.9688 96.4336L 99.6484 96.4336L 99.6777 97.5078C 100.14 96.6615 100.794 96.2383 101.641 96.2383C 101.914 96.2383 102.142 96.2839 102.324 96.375L 102.334 98.0547ZM 109.453 106.072C 108.88 106.821 108.044 107.195 106.943 107.195C 105.986 107.195 105.264 106.867 104.775 106.209C 104.287 105.545 104.04 104.581 104.033 103.318L 104.033 96.4336L 105.752 96.4336L 105.752 103.191C 105.752 104.839 106.247 105.662 107.236 105.662C 108.285 105.662 109.007 105.193 109.404 104.256L 109.404 96.4336L 111.133 96.4336L 111.133 107L 109.492 107L 109.453 106.072ZM 115.361 96.4336L 115.41 97.5762C 116.081 96.6842 116.937 96.2383 117.979 96.2383C 119.847 96.2383 120.794 97.485 120.82 99.9785L 120.82 107L 119.102 107L 119.102 100.057C 119.102 99.2298 118.962 98.6439 118.682 98.2988C 118.408 97.9473 117.995 97.7715 117.441 97.7715C 117.012 97.7715 116.624 97.9147 116.279 98.2012C 115.941 98.4876 115.667 98.862 115.459 99.3242L 115.459 107L 113.73 107L 113.73 96.4336L 115.361 96.4336ZM 127.09 105.721C 127.663 105.721 128.122 105.545 128.467 105.193C 128.812 104.835 129.001 104.327 129.033 103.67L 130.664 103.67C 130.625 104.686 130.264 105.529 129.58 106.199C 128.903 106.863 128.073 107.195 127.09 107.195C 125.781 107.195 124.782 106.785 124.092 105.965C 123.408 105.138 123.066 103.911 123.066 102.283L 123.066 101.121C 123.066 99.526 123.408 98.3151 124.092 97.4883C 124.775 96.6549 125.771 96.2383 127.08 96.2383C 128.161 96.2383 129.017 96.5801 129.648 97.2637C 130.286 97.9473 130.625 98.8815 130.664 100.066L 129.033 100.066C 128.994 99.2852 128.805 98.6992 128.467 98.3086C 128.135 97.918 127.673 97.7227 127.08 97.7227C 126.312 97.7227 125.742 97.9766 125.371 98.4844C 125 98.9857 124.808 99.8125 124.795 100.965L 124.795 102.312C 124.795 103.556 124.977 104.435 125.342 104.949C 125.713 105.464 126.296 105.721 127.09 105.721ZM 134.385 97.5176C 135.042 96.6647 135.882 96.2383 136.904 96.2383C 138.773 96.2383 139.72 97.485 139.746 99.9785L 139.746 107L 138.027 107L 138.027 100.057C 138.027 99.2298 137.887 98.6439 137.607 98.2988C 137.334 97.9473 136.921 97.7715 136.367 97.7715C 135.938 97.7715 135.55 97.9147 135.205 98.2012C 134.867 98.4876 134.593 98.862 134.385 99.3242L 134.385 107L 132.656 107L 132.656 92L 134.385 92L 134.385 97.5176Z"/>
</defs>
</svg>
